<svg xmlns="http://www.w3.org/2000/svg" viewBox="-42 0 886 886"  fill="black" id="logo-svg" stroke="black">
  <title>Logo NVLB</title>
  <desc>Logo de l'entreprise NVLB Nicolas Vanlerberghe EI</desc>
  <path d="m630,846c0,0 -48.42,-77 -48.42,-77c0,0 -81,-129 -81,-129c0,0 -168.53,-268 -168.53,-268c0,0 -103,-164 -103,-164c0,0 -96.63,-154 -96.63,-154c0,0 -8.1,-13 -8.1,-13c-5.82,-9.24 -12.69,-17.92 -6.92,-29c1.35,-2.59 3.48,-5.54 5.77,-7.36c2.33,-1.86 4.95,-2.88 7.83,-3.52c4.4,-0.97 7.55,-1.11 12,-1.12c0,0 102,0 102,0c4.64,0.06 10.91,0.7 15,2.97c7.62,4.22 11.65,11.81 16,19.03c0,0 14.42,23 14.42,23c0,0 90.9,145 90.9,145c0,0 265.63,423 265.63,423c0,0 78.63,125 78.63,125c0,0 36.42,58 36.42,58c0,0 0,-755 0,-755c0,0 -148,0 -148,0c0,0 0,321 0,321c0,0 0.65,8 0.65,8c0,0 14.15,25 14.15,25c0,0 39.2,65 39.2,65c0,0 0,-358 0,-358c0.01,-5.88 0.2,-10.14 4.39,-14.82c7.47,-8.34 23.67,-8.49 31.08,0c4.34,4.98 4.52,9.62 4.53,15.82c0,0 0,428 0,428c-0.01,6.32 -0.37,10.71 -4.71,15.82c-7.22,8.51 -22.31,9.26 -30.08,1.08c-2.69,-2.83 -7.36,-11.14 -9.61,-14.9c0,0 -16.61,-28 -16.61,-28c0,0 -48.39,-81 -48.39,-81c0,0 -14.2,-24 -14.2,-24c-6.24,-10.4 -10.38,-14.46 -10.4,-27c0,0 0,-286 0,-286c0,0 0,-53 0,-53c0,-8.38 -1.41,-17.58 3.47,-24.91c5.38,-8.1 14.61,-9.08 23.53,-9.09c0,0 175,0 175,0c3.46,0.04 8.7,0.6 12,1.54c14.55,4.17 14,17.46 14,29.46c0,0 0,17 0,17c0,0 0,153 0,153c0,0 0,662 0,662c-0.01,6.3 -0.32,10.71 -4.61,15.82c-2.52,3 -5.71,4.61 -9.39,5.74c-10.15,3.11 -17.79,-0.03 -23.96,-8.56c0,0 -11.46,-18 -11.46,-18c0,0 -20.63,-33 -20.63,-33c0,0 -78.53,-125 -78.53,-125c0,0 -312,-497 -312,-497c0,0 -78,-124 -78,-124c0,0 -16.37,-26 -16.37,-26c-1.9,-3.03 -5.25,-9.28 -8.23,-10.98c-2.16,-1.23 -5.38,-1.02 -7.82,-1.02c0,0 -59,0 -59,0c0,0 16.05,25 16.05,25c0,0 27,43 27,43c0,0 93,148 93,148c0,0 139.37,222 139.37,222c0,0 124.39,198 124.39,198c0,0 98.51,157 98.51,157c0,0 9.49,15 9.49,15c6.7,10.82 11.41,19.56 1.51,30.82c-2.07,2.35 -4.38,3.96 -7.32,5.05c-3.4,1.25 -6.46,1.12 -10,1.13c0,0 -110,0 -110,0c-13.85,-0.19 -19.19,-10.38 -25.6,-21c0,0 -15.06,-24 -15.06,-24c0,0 -35.76,-57 -35.76,-57c0,0 -56.63,-90 -56.63,-90c0,0 -250.53,-399 -250.53,-399c0,0 -79,-126 -79,-126c0,0 -51.42,-82 -51.42,-82c0,0 0,759 0,759c0,0 147.83,0 147.83,0c0,0 0,-322 0,-322c0,0 0,-7 0,-7c0,0 -15.03,-26 -15.03,-26c0,0 -38.8,-65 -38.8,-65c0,0 0,152 0,152c0,0 0,101 0,101c0,0 0,105 0,105c-0.01,5.36 -0.11,10.38 -3.65,14.82c-7.31,9.17 -24.96,9.93 -32.7,-0.84c-3.54,-4.9 -3.64,-9.24 -3.65,-14.98c0,0 0,-337 0,-337c0,0 0,-90 0,-90c0.02,-14.55 7.55,-23.99 23,-22.9c8.96,0.63 13.14,6.86 17.4,13.9c0,0 14.8,25 14.8,25c0,0 57.2,96 57.2,96c0,0 20.8,36 20.8,36c0.9,3 0.8,5.91 0.8,9c0,0 0,287 0,287c0,0 0,64 0,64c-0.07,15.36 -8.15,21.98 -23,22c0,0 -157,0 -157,0c0,0 -19,0 -19,0c-13,0 -23.78,0.41 -28.21,-15c-0.89,-3.09 -0.79,-5.83 -0.79,-9c0,0 0,-838 0,-838c0.01,-6.09 0.22,-10.97 4.39,-15.91c8.59,-10.17 26.69,-9.54 34.57,0.95c0,0 34.09,53.96 34.09,53.96c0,0 77.9,124 77.9,124c0,0 312,497 312,497c0,0 77.24,123 77.24,123c0,0 16.86,27 16.86,27c1.67,2.63 5.73,9.56 8.16,10.98c2.1,1.23 5.4,1.02 7.79,1.02c0,0 57,0 57,0z"/>
</svg>
